PathFileType	4	(X/Y/Z)	C:\Users\italobelli\Desktop\GitHub\PTbot_officialCBL\Personal_Results\ABD21_noisy1.trc
DataRate	CameraRate	NumFrames	NumMarkers	Units	OrigDataRate	OrigDataStartFrame	OrigNumFrames
106.533333	106.533333	25	9	m	106.533333	501	800
Frame#	Time		gu		centelbow		EpL		centpxt8		centijc7		ij		ts		aa		ai
			X1	Y1	Z1	X2	Y2	Z2	X3	Y3	Z3	X4	Y4	Z4	X5	Y5	Z5	X6	Y6	Z6	X7	Y7	Z7	X8	Y8	Z8	X9	Y9	Z9

501	4.6934	-0.10635	0.058297	0.12011	-0.088487	0.1211	0.35784	-0.10311	0.14881	0.34929	-0.046816	-0.15316	-0.008669	-0.046816	0.031938	-0.008669	0	0	0	-0.13055	-0.0019542	0.024736	-0.14581	0.064203	0.12122	-0.12991	-0.091165	0.091915
502	4.7028	-0.1063	0.057877	0.12054	-0.088442	0.11765	0.35871	-0.10307	0.14545	0.35051	-0.046816	-0.15316	-0.008669	-0.046816	0.031938	-0.008669	0	0	0	-0.13048	-0.0014426	0.024469	-0.14568	0.063724	0.12157	-0.12985	-0.091322	0.090693
503	4.7121	-0.10626	0.057448	0.12098	-0.088396	0.11417	0.35956	-0.10303	0.14206	0.35171	-0.046816	-0.15316	-0.008669	-0.046816	0.031938	-0.008669	0	0	0	-0.1304	-0.00092772	0.024204	-0.14554	0.06324	0.12193	-0.1298	-0.091476	0.089468
504	4.7215	-0.10621	0.057012	0.12142	-0.08835	0.11066	0.36038	-0.10298	0.13863	0.35289	-0.046816	-0.15316	-0.008669	-0.046816	0.031938	-0.008669	0	0	0	-0.13033	-0.00041042	0.023943	-0.1454	0.062753	0.12228	-0.12975	-0.091626	0.088241
505	4.7309	-0.10616	0.056568	0.12186	-0.088304	0.10712	0.36118	-0.10294	0.13517	0.35405	-0.046816	-0.15316	-0.008669	-0.046816	0.031938	-0.008669	0	0	0	-0.13026	0.00010855	0.023685	-0.14527	0.062263	0.12263	-0.12971	-0.091773	0.087015
506	4.7403	-0.10611	0.056117	0.12231	-0.088259	0.10356	0.36196	-0.1029	0.13168	0.35519	-0.046816	-0.15316	-0.008669	-0.046816	0.031938	-0.008669	0	0	0	-0.13018	0.00062842	0.02343	-0.14513	0.06177	0.12298	-0.12967	-0.091917	0.085791
507	4.7497	-0.10607	0.055659	0.12276	-0.088215	0.099969	0.36271	-0.10286	0.12816	0.35631	-0.046816	-0.15316	-0.008669	-0.046816	0.031938	-0.008669	0	0	0	-0.13011	0.0011484	0.023181	-0.145	0.061276	0.12334	-0.12963	-0.092056	0.08457
508	4.7591	-0.10602	0.055194	0.1232	-0.088173	0.096363	0.36343	-0.10282	0.12462	0.35739	-0.046816	-0.15316	-0.008669	-0.046816	0.031938	-0.008669	0	0	0	-0.13004	0.0016678	0.022936	-0.14486	0.060779	0.12369	-0.12959	-0.092192	0.083356
509	4.7685	-0.10598	0.054723	0.12366	-0.088133	0.092737	0.36412	-0.10278	0.12106	0.35846	-0.046816	-0.15316	-0.008669	-0.046816	0.031938	-0.008669	0	0	0	-0.12997	0.0021858	0.022696	-0.14473	0.060282	0.12404	-0.12955	-0.092324	0.082148
510	4.7778	-0.10594	0.054247	0.12411	-0.088096	0.089096	0.36479	-0.10274	0.11748	0.35949	-0.046816	-0.15316	-0.008669	-0.046816	0.031938	-0.008669	0	0	0	-0.1299	0.0027016	0.022461	-0.14459	0.059784	0.12439	-0.12952	-0.092452	0.080949
511	4.7872	-0.10589	0.053764	0.12456	-0.088062	0.08544	0.36542	-0.10271	0.11387	0.3605	-0.046816	-0.15316	-0.008669	-0.046816	0.031938	-0.008669	0	0	0	-0.12984	0.0032145	0.022233	-0.14446	0.059286	0.12474	-0.1295	-0.092576	0.079761
512	4.7966	-0.10585	0.053277	0.12502	-0.088032	0.081772	0.36603	-0.10268	0.11025	0.36148	-0.046816	-0.15316	-0.008669	-0.046816	0.031938	-0.008669	0	0	0	-0.12977	0.0037237	0.022011	-0.14433	0.058787	0.12509	-0.12947	-0.092695	0.078586
513	4.806	-0.10581	0.052785	0.12547	-0.088005	0.078094	0.3666	-0.10265	0.10662	0.36242	-0.046816	-0.15316	-0.008669	-0.046816	0.031938	-0.008669	0	0	0	-0.12971	0.0042285	0.021797	-0.14419	0.05829	0.12545	-0.12945	-0.092809	0.077424
514	4.8154	-0.10577	0.052288	0.12593	-0.087984	0.074409	0.36714	-0.10263	0.10298	0.36334	-0.046816	-0.15316	-0.008669	-0.046816	0.031938	-0.008669	0	0	0	-0.12964	0.004728	0.021589	-0.14406	0.057794	0.1258	-0.12943	-0.092919	0.076279
515	4.8248	-0.10573	0.051787	0.12639	-0.087967	0.070719	0.36765	-0.10261	0.099329	0.36422	-0.046816	-0.15316	-0.008669	-0.046816	0.031938	-0.008669	0	0	0	-0.12958	0.0052215	0.021389	-0.14393	0.057299	0.12614	-0.12942	-0.093024	0.075151
516	4.8342	-0.10569	0.051282	0.12685	-0.087956	0.067025	0.36813	-0.10259	0.09567	0.36507	-0.046816	-0.15316	-0.008669	-0.046816	0.031938	-0.008669	0	0	0	-0.12952	0.0057082	0.021197	-0.1438	0.056807	0.12649	-0.12941	-0.093125	0.074042
517	4.8436	-0.10565	0.050774	0.1273	-0.087951	0.06333	0.36857	-0.10258	0.092008	0.36588	-0.046816	-0.15316	-0.008669	-0.046816	0.031938	-0.008669	0	0	0	-0.12946	0.0061874	0.021014	-0.14367	0.056317	0.12684	-0.1294	-0.093219	0.072954
518	4.8529	-0.10561	0.050263	0.12776	-0.087952	0.059637	0.36898	-0.10258	0.088343	0.36665	-0.046816	-0.15316	-0.008669	-0.046816	0.031938	-0.008669	0	0	0	-0.12941	0.0066583	0.02084	-0.14354	0.05583	0.12719	-0.1294	-0.093309	0.071888
519	4.8623	-0.10557	0.049749	0.12822	-0.08796	0.055947	0.36934	-0.10257	0.084679	0.36739	-0.046816	-0.15316	-0.008669	-0.046816	0.031938	-0.008669	0	0	0	-0.12935	0.0071202	0.020675	-0.14341	0.055346	0.12753	-0.1294	-0.093393	0.070847
520	4.8717	-0.10553	0.049232	0.12868	-0.087976	0.052262	0.36968	-0.10258	0.081017	0.36809	-0.046816	-0.15316	-0.008669	-0.046816	0.031938	-0.008669	0	0	0	-0.1293	0.0075722	0.02052	-0.14328	0.054867	0.12788	-0.1294	-0.093472	0.069832
521	4.8811	-0.10549	0.048713	0.12914	-0.087999	0.048586	0.36997	-0.10259	0.07736	0.36875	-0.046816	-0.15316	-0.008669	-0.046816	0.031938	-0.008669	0	0	0	-0.12925	0.0080136	0.020375	-0.14315	0.054391	0.12822	-0.12941	-0.093545	0.068845
522	4.8905	-0.10546	0.048193	0.1296	-0.088031	0.044919	0.37023	-0.1026	0.073711	0.36936	-0.046816	-0.15316	-0.008669	-0.046816	0.031938	-0.008669	0	0	0	-0.12921	0.0084437	0.02024	-0.14302	0.053921	0.12856	-0.12942	-0.093612	0.067888
523	4.8999	-0.10542	0.047671	0.13006	-0.088072	0.041265	0.37044	-0.10262	0.07007	0.36994	-0.046816	-0.15316	-0.008669	-0.046816	0.031938	-0.008669	0	0	0	-0.12916	0.0088616	0.020117	-0.14289	0.053456	0.1289	-0.12944	-0.093673	0.066961
524	4.9093	-0.10538	0.047148	0.13052	-0.088122	0.037625	0.37062	-0.10265	0.066442	0.37047	-0.046816	-0.15316	-0.008669	-0.046816	0.031938	-0.008669	0	0	0	-0.12912	0.0092666	0.020006	-0.14277	0.052997	0.12924	-0.12946	-0.093728	0.066068
525	4.9186	-0.10535	0.046625	0.13097	-0.088182	0.034002	0.37075	-0.10269	0.062827	0.37095	-0.046816	-0.15316	-0.008669	-0.046816	0.031938	-0.008669	0	0	0	-0.12908	0.0096579	0.019906	-0.14264	0.052544	0.12958	-0.12948	-0.093777	0.065209
